<?xml version="1.0" standalone="no"?>
<!DOCTYPE svg PUBLIC "-//W3C//DTD SVG 20010904//EN"
 "http://www.w3.org/TR/2001/REC-SVG-20010904/DTD/svg10.dtd">
<svg version="1.0" xmlns="http://www.w3.org/2000/svg"
 width="686.000000pt" height="686.000000pt" viewBox="0 0 686.000000 686.000000"
 preserveAspectRatio="xMidYMid meet">
<metadata>
Created by potrace 1.14, written by Peter Selinger 2001-2017
</metadata>
<g transform="translate(0.000000,686.000000) scale(0.100000,-0.100000)"
fill="#000000" stroke="none">
<path d="M2951 6790 c-51 -15 -103 -32 -115 -38 -127 -59 -264 -127 -276 -138
-8 -7 -19 -14 -25 -15 -19 -5 -352 -214 -365 -229 -3 -4 -27 -22 -55 -40 -27
-19 -54 -38 -60 -42 -5 -5 -44 -34 -85 -65 -85 -64 -128 -97 -150 -116 -8 -7
-37 -31 -65 -53 -27 -21 -55 -43 -61 -49 -6 -5 -35 -30 -64 -55 -49 -41 -73
-62 -159 -138 -161 -144 -350 -353 -500 -552 -39 -52 -74 -99 -79 -105 -34
-44 -158 -254 -213 -361 -61 -120 -126 -273 -134 -316 -2 -9 -8 -25 -14 -36
-5 -10 -12 -30 -15 -43 -3 -13 -15 -55 -26 -94 -27 -91 -31 -110 -54 -250 -15
-88 -21 -141 -31 -258 -2 -32 -7 -62 -10 -67 -4 -6 -3 -10 2 -10 4 0 7 -24 5
-52 -4 -77 -3 -94 2 -183 6 -94 13 -176 20 -225 9 -66 19 -135 22 -145 7 -29
15 -74 19 -105 3 -19 9 -46 15 -60 5 -14 11 -39 14 -57 2 -17 7 -37 11 -43 4
-6 9 -26 11 -43 3 -18 8 -39 11 -47 7 -18 6 -15 21 -65 6 -22 11 -42 10 -45
-1 -3 4 -15 11 -28 7 -13 14 -31 16 -40 6 -32 56 -166 97 -259 10 -23 18 -46
18 -52 0 -5 8 -15 18 -20 9 -6 14 -11 9 -11 -10 0 25 -55 63 -99 8 -9 22 -30
30 -46 8 -17 20 -35 25 -41 6 -6 35 -45 65 -87 30 -43 58 -77 62 -77 4 0 8 -6
8 -13 0 -6 19 -32 41 -57 23 -25 41 -47 41 -50 0 -3 14 -22 31 -43 18 -21 39
-46 47 -56 70 -85 94 -112 160 -182 41 -44 81 -87 88 -95 7 -8 18 -11 24 -8 6
4 8 3 5 -3 -6 -9 26 -42 136 -140 20 -18 41 -33 46 -33 5 0 12 -7 15 -16 3 -8
10 -12 16 -9 5 3 10 1 10 -4 0 -6 19 -23 43 -37 23 -15 44 -30 47 -33 11 -14
167 -85 213 -97 57 -15 185 -11 218 7 12 6 19 7 16 2 -3 -5 -43 -32 -89 -59
-46 -27 -90 -53 -100 -59 -24 -14 -64 -37 -138 -79 -71 -40 -427 -216 -436
-216 -3 0 -20 -7 -37 -15 -83 -38 -364 -136 -432 -150 -40 -8 -60 -13 -60 -15
0 -1 -11 -3 -25 -6 -14 -2 -54 -14 -90 -26 -36 -12 -67 -23 -70 -23 -45 -12
-130 -56 -155 -81 -33 -33 -31 -50 9 -88 49 -44 190 -90 367 -120 19 -3 45 -8
59 -11 13 -2 42 -7 65 -10 22 -3 51 -8 65 -10 106 -18 174 -21 325 -11 120 8
156 11 230 20 22 2 72 7 110 11 39 3 98 10 132 16 34 5 66 8 70 7 8 -1 90 11
128 19 11 3 27 5 35 5 8 0 38 5 65 10 28 5 66 11 85 13 19 3 44 7 55 9 17 3
55 10 130 22 11 2 40 8 65 14 25 5 65 12 90 16 24 3 47 7 51 9 5 4 147 35 179
40 8 1 22 5 30 8 8 3 29 8 45 11 34 5 303 75 410 106 39 11 80 23 92 25 97 22
619 207 791 281 17 8 47 20 65 28 150 65 350 163 496 244 143 80 153 85 165
95 6 4 52 32 101 63 80 50 322 218 335 234 3 3 27 24 55 45 85 68 125 105 273
251 78 78 142 146 142 152 0 6 4 12 9 14 6 2 39 41 76 88 36 47 69 90 73 95
15 18 97 147 136 212 90 151 207 435 242 588 1 6 9 40 18 76 18 81 22 100 32
175 9 71 10 78 13 84 19 46 16 574 -3 690 -3 14 -7 50 -10 80 -3 30 -8 66 -10
80 -3 14 -7 43 -10 65 -2 22 -7 51 -10 65 -3 14 -8 36 -10 50 -7 43 -46 214
-56 245 -31 100 -82 253 -90 270 -5 11 -19 45 -31 75 -30 81 -162 341 -185
366 -6 7 -17 26 -24 43 -7 17 -16 31 -21 31 -5 0 -9 7 -9 15 0 8 -3 15 -8 15
-4 0 -18 18 -32 40 -14 22 -28 40 -32 40 -5 0 -8 5 -8 11 0 36 -285 343 -431
464 -74 60 -188 145 -197 145 -5 0 -12 7 -16 15 -3 8 -12 15 -21 15 -8 0 -15
4 -15 9 0 5 -13 14 -30 21 -16 7 -30 16 -30 21 0 5 -5 9 -10 9 -6 0 -34 15
-63 33 -29 18 -68 41 -87 51 -100 52 -269 134 -300 146 -19 8 -45 19 -57 25
-12 7 -102 38 -200 70 -98 32 -185 60 -193 63 -8 3 -24 7 -34 9 -10 2 -53 12
-95 23 -73 18 -124 29 -166 35 -11 2 -20 4 -20 5 0 2 -18 5 -85 14 -25 3 -56
8 -69 11 -13 2 -49 7 -80 10 -31 3 -72 8 -91 11 -30 4 -202 13 -267 14 -21 0
-23 5 -23 53 0 64 -23 145 -49 176 -57 66 -175 77 -330 31z m-286 -1808 c6 -4
15 -7 20 -8 6 -2 120 -37 255 -79 251 -79 297 -93 305 -95 3 0 10 -2 17 -5 7
-2 67 -20 133 -40 66 -20 129 -39 140 -43 11 -3 22 -6 25 -7 14 -3 127 -37
140 -42 8 -3 18 -7 23 -8 4 -2 8 -3 10 -5 1 -1 9 -3 17 -5 20 -4 321 -94 340
-102 8 -3 20 -7 25 -8 6 -2 39 -12 75 -24 36 -11 137 -44 225 -72 88 -28 167
-53 175 -56 8 -3 76 -27 150 -53 210 -75 221 -79 288 -110 35 -17 67 -30 71
-30 5 0 14 -7 21 -15 7 -8 16 -12 21 -10 4 3 43 -29 87 -72 92 -91 122 -154
127 -265 6 -146 -69 -338 -159 -408 -18 -14 -53 -41 -77 -62 -24 -20 -111 -91
-194 -158 -82 -67 -161 -132 -175 -144 -14 -11 -41 -34 -60 -49 -19 -16 -53
-43 -74 -60 -79 -63 -181 -147 -196 -160 -8 -7 -40 -33 -70 -57 -30 -25 -66
-55 -80 -67 -14 -11 -81 -67 -150 -123 -69 -56 -134 -109 -145 -118 -11 -9
-40 -33 -65 -52 -25 -19 -49 -40 -55 -46 -5 -6 -71 -60 -145 -119 -74 -60
-148 -122 -165 -137 -16 -15 -33 -28 -37 -28 -4 0 -14 -7 -22 -16 -15 -14 -84
-72 -186 -154 -24 -19 -110 -90 -192 -158 l-148 -123 -47 5 c-27 2 -59 7 -73
11 -14 3 -32 8 -40 10 -8 2 -16 4 -17 5 -2 2 -6 3 -10 4 -58 13 -198 82 -237
116 -16 14 -32 24 -37 23 -4 -2 -11 6 -14 17 -4 11 -10 20 -15 20 -4 0 -21 20
-38 45 -16 24 -33 41 -37 37 -5 -4 -5 -2 -2 4 3 6 0 29 -8 51 -8 22 -16 69
-19 104 -2 35 -5 64 -6 64 0 0 -3 34 -5 75 -3 41 -7 93 -9 115 -3 22 -7 72
-11 110 -3 39 -8 90 -11 115 -3 25 -7 72 -10 105 -7 72 -12 110 -13 110 -1 0
-4 27 -6 60 -2 33 -6 78 -8 100 -3 22 -7 72 -11 110 -4 39 -9 84 -11 100 -2
17 -7 62 -10 100 -3 39 -8 86 -11 105 -3 19 -7 58 -9 85 -3 28 -6 64 -9 80 -2
17 -7 64 -11 105 -4 41 -9 89 -11 105 -2 17 -6 62 -9 100 -3 39 -8 77 -10 85
-2 8 -7 49 -10 90 -4 41 -9 89 -11 105 -4 31 -11 97 -19 175 -3 25 -7 61 -10
80 -4 35 -13 117 -20 195 -2 22 -7 62 -10 88 -4 29 -1 63 6 85 7 20 12 40 11
45 -1 4 2 7 8 7 5 0 10 4 10 9 0 12 46 67 100 119 48 47 200 127 260 137 19 3
36 8 38 9 4 5 113 -23 127 -32z m-584 -3329 c13 -16 12 -17 -3 -4 -10 7 -18
15 -18 17 0 8 8 3 21 -13z"/>
</g>
</svg>
